<?xml version="1.0" standalone="no"?>
<!DOCTYPE svg PUBLIC "-//W3C//DTD SVG 20010904//EN"
 "http://www.w3.org/TR/2001/REC-SVG-20010904/DTD/svg10.dtd">
<svg version="1.0" xmlns="http://www.w3.org/2000/svg"
 width="200px" height="100px" viewBox="0 0 200 100" 
 preserveAspectRatio="xMidYMid meet">
<metadata>
Created by potrace 1.10, written by Peter Selinger 2001-2011
</metadata>
<rect width="100%" height="100%" fill="black"/>
<g transform="translate(32,121) scale(0.09,-0.09)" fill="#ffffff" stroke="none">
fill="#ffffff" stroke="none">
<path d="M272 1209 c2 -7 19 -17 38 -23 59 -19 60 -29 58 -358 -3 -283 -4
-298 -24 -325 -11 -15 -31 -30 -44 -33 -13 -3 -25 -11 -28 -18 -3 -9 38 -12
172 -12 150 0 176 2 176 15 0 8 -9 15 -20 15 -12 0 -32 11 -45 25 l-25 24 0
314 c0 312 0 314 23 334 12 11 32 24 45 28 58 17 10 25 -154 25 -126 0 -175
-3 -172 -11z m228 -60 c-6 -20 -10 -142 -9 -294 1 -143 1 -273 1 -289 -1 -16
2 -34 6 -40 11 -16 8 -51 -4 -49 -6 1 -34 3 -62 4 -48 2 -52 4 -45 23 5 12 8
169 8 349 l0 329 53 -4 c28 -2 52 1 52 6 0 5 2 7 5 5 2 -3 0 -21 -5 -40z"/>
<path d="M660 835 c0 -250 4 -385 10 -385 6 0 10 135 10 385 0 250 -4 385 -10
385 -6 0 -10 -135 -10 -385z"/>
<path d="M720 1212 c0 -5 11 -14 24 -20 54 -24 56 -33 56 -359 1 -323 -3 -354
-50 -366 -11 -3 -20 -10 -20 -16 0 -8 53 -11 183 -9 108 2 181 7 180 12 -1 6
-15 11 -30 13 -16 2 -37 8 -48 14 -49 24 -50 33 -53 397 l-3 342 -119 0 c-66
0 -120 -4 -120 -8z m211 -362 c3 -179 9 -335 13 -348 8 -23 8 -23 -55 -20 -58
3 -64 5 -60 23 9 51 12 575 3 623 l-9 53 51 -3 51 -3 6 -325z"/>
<path d="M1030 1205 c0 -11 11 -15 35 -15 91 0 129 -57 129 -195 0 -136 -29
-181 -126 -199 -21 -4 -38 -11 -38 -16 0 -13 40 -12 133 5 148 26 211 89 210
212 -1 122 -62 180 -220 208 -102 19 -123 18 -123 0z m236 -74 c55 -34 72 -68
70 -143 -2 -64 -3 -68 -43 -107 -27 -27 -50 -41 -68 -41 -24 0 -25 2 -13 23
14 26 17 193 4 250 -10 44 1 48 50 18z"/>
</g>
</svg>
